<?xml version="1.0" encoding="UTF-8"?>
<svg id="Layer_1" xmlns="http://www.w3.org/2000/svg" version="1.1" viewBox="0 0 800 1000">
  <!-- Generator: Adobe Illustrator 29.1.0, SVG Export Plug-In . SVG Version: 2.1.0 Build 142)  -->
  <defs>
    <style>
      .st0 {
        fill: #e2231a;
      }
    </style>
  </defs>
  <g>
    <g>
      <path d="M540.93,327.24c3.62,14.28,5.46,29.05,5.46,43.91,0,26.81-6.55,54.58-18.94,80.31-13.32,27.66-32.81,51.36-56.37,68.54-29.38,21.42-65.35,32.74-104.03,32.74-11.87,0-24.17-1.05-36.74-3.13,31,16.11,65.58,24.55,101.11,24.55,57.9,0,112.5-21.89,153.74-61.64,41.53-40.03,64.41-93.5,64.41-150.56,0-24.75-4.32-49.23-12.84-72.75-14.98-41.24-43.08-78.26-79.1-104.25-37.35-26.94-80.99-41.18-126.21-41.18-39.73,0-74.97,11.4-104.76,33.89-27.12,20.47-42.46,44.71-49.19,57.33l-.05.09c-10.87,19.51-16.61,41.62-16.61,63.96s5.62,44.39,16.39,63.71c-5.64-33.28.34-64.22,17.63-90.35,11.04-16.69,26.48-30.53,44.63-40.04,18.01-9.43,38.34-14.41,58.82-14.41,30.79,0,60.33,9.47,85.43,27.4,24.49,17.49,42.95,41.64,53.37,69.84l.65,1.75v.1c1.16,3.45,2.19,6.7,3.14,9.9l.08.28Z"/>
      <path class="st0" d="M635.69,258.01c-1.24-6.28-2.72-12.49-4.44-18.62-.43-1.53-.88-3.06-1.33-4.58-1.84-6.09-3.91-12.1-6.22-18.01-.58-1.48-1.17-2.95-1.77-4.42-4.61-11.19-10.06-22.01-16.29-32.4-.62-1.03-1.24-2.06-1.88-3.08-10.55-17.03-23.24-32.84-37.9-47.05-.04-.04-.09-.09-.13-.13-1.13-1.1-2.28-2.19-3.44-3.26-26.99-25.14-58.84-43.57-93.28-54.4-3.63-1.14-7.28-2.2-10.96-3.17-5.52-1.46-11.1-2.72-16.73-3.79-3.75-.71-7.53-1.34-11.32-1.87s-7.61-.99-11.43-1.35c-7.66-.72-15.38-1.08-23.15-1.08-6.13,0-12.23.22-18.29.67-4.04.3-8.06.69-12.05,1.18-7.99.98-15.9,2.35-23.69,4.09-3.9.87-7.76,1.84-11.6,2.9-7.68,2.12-15.23,4.61-22.64,7.47-3.7,1.43-7.37,2.95-11,4.56-1.81.8-3.62,1.63-5.42,2.48-25.13,11.89-48.3,28.16-68.54,48.4-13.57,13.57-25.33,28.46-35.21,44.36-23.8,38.34-36.55,82.62-36.55,128.87,0,18.67,2.12,37.15,6.25,55.11.64,2.76,1.32,5.51,2.05,8.25.37,1.37.74,2.73,1.13,4.1.78,2.72,1.61,5.43,2.48,8.13.87,2.7,1.79,5.37,2.76,8.04,5.8,15.98,13.29,31.37,22.38,45.92,22.84,36.54,54.86,66.43,92.79,86.68,1.22.65,2.45,1.3,3.69,1.93.79.4,1.58.8,2.37,1.21,1.24.64,2.41,1.24,3.62,1.82.88.41,1.77.8,2.66,1.19.27.12.53.23.79.35.21.09.42.18.63.28,0,0,0,0,0,0,1.54.49,3.06.96,4.58,1.42.46.14.92.27,1.38.41,1.1.33,2.19.65,3.28.96.47.13.95.27,1.42.4,1.27.36,2.54.7,3.8,1.03.23.06.45.12.68.18,1.47.39,2.93.75,4.39,1.11.41.1.81.19,1.21.29,1.07.26,2.14.51,3.21.75.46.1.92.21,1.38.31,1.12.25,2.24.48,3.35.71.32.07.64.14.96.2,1.41.28,2.81.55,4.2.81.33.06.66.12.99.18,1.08.19,2.15.38,3.21.55.44.07.88.14,1.32.21,1.02.16,2.04.32,3.05.47.36.05.73.11,1.09.16,1.35.19,2.69.37,4.01.53.23.03.46.05.68.08,1.11.13,2.21.26,3.3.37.42.04.83.08,1.24.13.95.09,1.9.18,2.85.26.38.03.76.07,1.14.1,1.29.1,2.57.2,3.84.28.06,0,.11,0,.16,0,1.22.07,2.42.13,3.63.19.38.02.76.03,1.13.04.91.03,1.81.06,2.71.08.38,0,.77.02,1.15.03,1.07.02,2.14.03,3.2.03.15,0,.31,0,.46,0,1.23,0,2.46-.02,3.67-.04.34,0,.68-.02,1.02-.03.91-.02,1.82-.05,2.72-.09.35-.01.71-.03,1.06-.04,1.14-.05,2.27-.11,3.38-.18.06,0,.11,0,.17,0,1.17-.08,2.33-.16,3.49-.26.34-.03.67-.06,1-.09.86-.08,1.71-.16,2.56-.25.33-.03.66-.07.99-.1,1.13-.12,2.25-.25,3.35-.4.04,0,.08-.01.12-.02,1.07-.14,2.13-.29,3.18-.45.32-.05.65-.1.97-.15.81-.13,1.62-.26,2.43-.39.3-.05.6-.1.9-.15,1.06-.19,2.12-.38,3.16-.58.12-.02.24-.05.36-.07.93-.18,1.85-.37,2.77-.57.31-.07.62-.14.93-.2.77-.17,1.54-.35,2.3-.52.27-.06.55-.13.82-.19,1-.24,1.99-.49,2.97-.74.16-.04.32-.09.48-.13.83-.22,1.65-.44,2.47-.67.3-.08.6-.17.9-.26.73-.21,1.46-.42,2.18-.64.25-.07.49-.15.74-.22.94-.29,1.87-.58,2.79-.89.19-.06.37-.12.56-.19.75-.25,1.49-.5,2.23-.76.28-.1.56-.2.84-.3.7-.25,1.4-.5,2.09-.76.21-.08.43-.16.64-.23.88-.33,1.75-.67,2.61-1.01.2-.08.39-.16.59-.24.68-.27,1.35-.55,2.02-.83.26-.11.53-.22.79-.33.67-.28,1.33-.57,1.99-.86.18-.08.36-.16.54-.24.82-.37,1.63-.74,2.44-1.11.2-.09.39-.19.59-.28.62-.29,1.24-.59,1.86-.89.24-.12.48-.23.72-.35.65-.32,1.3-.65,1.94-.97.14-.07.28-.14.41-.21.77-.39,1.52-.79,2.27-1.19.2-.1.39-.21.58-.32.57-.31,1.14-.62,1.7-.93.22-.12.44-.24.65-.37.64-.36,1.27-.72,1.89-1.08.09-.05.19-.11.28-.16.71-.42,1.41-.83,2.1-1.25.19-.11.38-.23.56-.34.52-.32,1.04-.64,1.55-.96.2-.12.4-.25.59-.37.63-.4,1.24-.8,1.86-1.2.05-.03.09-.06.14-.09.66-.43,1.3-.86,1.94-1.3.18-.12.35-.24.52-.36.48-.33.96-.66,1.43-.99.18-.12.35-.25.53-.37.61-.43,1.22-.87,1.82-1.31,42.84-31.23,70.52-85.96,70.52-139.43,0-6.07-.33-12.13-.98-18.14-.16-1.5-.35-3-.55-4.5-.61-4.49-1.4-8.95-2.38-13.36-4.73,18.15-13,35.16-24.28,50.11-3.59,4.76-7.48,9.33-11.67,13.64-.07.08-.14.15-.22.23-2.49,2.55-5.09,5.02-7.79,7.4-.82.72-1.64,1.43-2.47,2.13-1.3,1.09-2.61,2.15-3.94,3.19-2.08,1.63-4.19,3.2-6.35,4.71-1.77,1.23-3.56,2.42-5.38,3.57-.91.57-1.82,1.14-2.74,1.69-1.84,1.11-3.71,2.17-5.59,3.19-1.89,1.02-3.79,2-5.72,2.93-1.93.93-3.88,1.82-5.84,2.67-17.7,7.61-36.9,11.62-56.51,11.62s-36.8-3.57-53.64-10.39c-1.05-.43-2.1-.86-3.14-1.32-15.64-6.77-30.08-16.37-42.66-28.53l-1.12-1c-8.69-8.49-16.11-17.83-22.2-27.85-.61-1-1.21-2.01-1.79-3.03-1.17-2.03-2.28-4.09-3.34-6.17-1.59-3.12-3.06-6.3-4.4-9.53-7.18-17.23-10.88-35.92-10.88-55.35,0-10.63,1.19-21.21,3.52-31.52.33-1.47.69-2.94,1.07-4.4,3.03-11.7,7.54-23,13.44-33.6h0s0,0,0,0c3.61-6.78,10.37-18.12,20.81-30.71.55-.66,1.11-1.33,1.68-2,1.08-1.26,2.19-2.54,3.34-3.82.12-.14.24-.27.36-.41,1.17-1.3,2.38-2.61,3.63-3.92.66-.69,1.32-1.38,2-2.06,2.78-2.83,5.74-5.66,8.88-8.48,1.33-1.19,2.69-2.37,4.08-3.55,1.08-.91,2.19-1.82,3.31-2.73,1.3-1.05,2.63-2.09,3.99-3.12,1.32-1,2.67-2,4.04-2.98,8.29-5.95,17.55-11.53,27.85-16.37,1.22-.57,2.45-1.14,3.7-1.69,3.42-1.51,6.95-2.94,10.59-4.28,2.62-.96,5.3-1.87,8.04-2.73,16.99-5.32,36.23-8.55,57.92-8.55h0c22.35,0,44.33,3.3,65.43,9.72,7.03,2.14,13.97,4.63,20.79,7.46,4.09,1.7,8.14,3.52,12.14,5.46,1.33.65,2.66,1.31,3.99,1.98,10.59,5.4,20.84,11.66,30.68,18.75,29.78,21.48,54.41,50.14,71.25,82.49Z"/>
    </g>
    <g>
      <path d="M224.85,721.88c3.33-1.11,3.77-3.1,3.77-6.43l.22-10.2c.22-8.2-2.44-19.29-16.19-19.29-6.21,0-13.75,3.1-14.19,9.98-.22,3.55-.44,6.21-2.22,7.54-3.33,2.66-9.31,4.21-12.64,4.21-2,0-3.1-1.11-3.1-3.1,0-11.53,25.06-27.27,41.24-27.27s23.73,9.31,23.06,25.94l-1.33,38.58c-.44,10.2,1.55,19.29,10.2,19.29,2.22,0,4.21-.67,5.54-1.33,1.11-.67,2.22-1.55,2.88-1.55.89,0,1.55,1.33,1.55,2.88,0,1.11-7.76,9.76-18.63,9.76-5.32,0-10.64-2-14.41-6.87-.89-1.33-2.22-3.1-3.55-3.1-1.55,0-4.21,2-8.65,4.44-4.88,2.66-9.76,5.54-15.96,5.54s-11.75-1.77-15.52-5.1c-4.21-3.77-6.87-9.31-6.87-15.52,0-8.65,4.21-13.75,18.4-18.85l26.39-9.53ZM211.1,760.9c4.43,0,11.31-3.33,13.53-5.54,2.66-2.66,2.66-5.76,2.88-10.42l.44-13.08c0-2.44-.89-2.88-2.22-2.88s-5.1.89-9.09,2.22c-13.08,4.43-19.51,7.76-19.51,16.41,0,3.77,2.66,13.3,13.97,13.3Z"/>
      <path d="M297.8,742.94c0,15.97.44,18.18,8.43,19.29l5.32.67c1.55,1.11,1.11,4.88-.44,5.54-7.32-.44-13.75-.67-21.51-.67s-14.63.22-21.29.67c-1.55-.67-2-4.43-.44-5.54l5.1-.67c8.2-1.11,8.43-3.33,8.43-19.29v-100.22c0-13.08-.22-14.41-6.87-18.4l-2.22-1.33c-1.11-.67-1.11-3.77,0-4.43,5.54-1.77,15.96-5.1,23.95-9.31.89,0,1.77.44,2.22,1.33-.22,6.65-.67,17.74-.67,27.49v104.88Z"/>
      <path d="M345.47,711.01c-5.77,0-5.99.44-5.99,5.99,0,22.39,13.08,41.46,36.81,41.46,7.32,0,13.53-2.22,20.4-10.86,2.22-.67,3.77.67,3.99,2.66-7.32,15.08-23.28,20.62-34.81,20.62-14.41,0-25.72-6.21-32.15-14.63-6.65-8.65-9.31-19.07-9.31-28.83,0-27.27,17.96-50.11,44.57-50.11,19.07,0,31.49,13.08,31.49,26.39,0,3.1-.44,4.88-.89,5.76-.67,1.33-3.77,1.55-13.08,1.55h-41.02ZM359.22,704.36c16.41,0,21.29-.89,23.06-2.22.67-.44,1.33-1.33,1.33-4.21,0-6.21-4.21-13.97-17.07-13.97s-24.39,11.97-24.61,19.29c0,.44,0,1.11,1.55,1.11h15.74Z"/>
      <path d="M423.3,704.14c0-8.65,0-9.76-5.99-13.75l-2-1.33c-.89-.89-.89-3.33.22-3.99,5.77-2.44,16.19-7.76,21.95-11.97,1.33,0,2.22.44,2.66,1.55-.44,3.99-.89,7.32-.89,10.2,0,1.55.44,2.88,2,2.88,2.88-1.33,16.85-10.42,31.04-10.42,22.39,0,36.81,18.18,36.81,40.58,0,30.82-22.62,52.99-54.1,52.99-3.99,0-10.2-.44-12.2-.89-2,.44-3.1,1.55-3.1,6.21v23.28c0,15.74.44,17.74,8.43,18.85l8.65,1.11c1.55,1.11,1.11,4.88-.44,5.54-10.64-.44-17.07-.67-24.83-.67s-14.63.22-20.84.67c-1.55-.67-2-4.43-.44-5.54l4.66-.67c8.2-1.11,8.43-3.33,8.43-19.29v-95.35ZM439.71,745.38c0,7.1,2.22,9.76,6.65,13.3,4.43,3.33,11.31,4.88,15.96,4.88,18.18,0,28.83-16.85,28.83-39.91,0-17.74-9.98-35.7-29.93-35.7-9.53,0-16.41,3.55-18.85,6.21-2,2.44-2.66,5.77-2.66,13.08v38.14Z"/>
      <path d="M536.38,642.72c0-13.08-.22-14.41-6.87-18.4l-2.22-1.33c-1.11-.67-1.11-3.77,0-4.43,5.54-1.77,15.96-5.1,23.95-9.31.89,0,1.77.44,2.22,1.33-.22,6.65-.67,17.74-.67,27.49v46.56c0,2,.22,3.77.89,4.21,7.98-6.21,18.63-11.53,29.93-11.53,21.06,0,28.6,13.08,28.6,28.6v37.03c0,15.97.44,18.4,8.43,19.29l5.99.67c1.55,1.11,1.11,4.88-.44,5.54-7.98-.44-14.41-.67-22.17-.67s-14.63.22-20.62.67c-1.55-.67-2-4.43-.44-5.54l4.43-.67c8.2-1.33,8.43-3.33,8.43-19.29v-31.71c0-14.19-6.87-23.73-21.06-23.73-7.54,0-13.3,2.66-17.3,5.99-3.99,3.33-4.66,4.43-4.66,12.2v37.25c0,15.97.44,18.18,8.43,19.29l4.66.67c1.55.89,1.11,4.88-.44,5.54-6.65-.44-13.08-.67-20.84-.67s-14.63.22-21.73.67c-1.55-.67-2-4.43-.44-5.54l5.54-.67c8.2-.89,8.43-3.33,8.43-19.29v-100.22Z"/>
    </g>
  </g>
  <g>
    <g>
      <path d="M470.21,897.75c-1.53,1.03-5.18,3.32-10.95,3.32-10.46,0-18.91-8.01-18.91-18.8s8.45-18.8,18.91-18.8,18.91,7.96,18.91,18.8c0,6.65-3,10.79-5.12,13.03l5.34,5.5h-5.23l-2.94-3.05ZM470.16,892.35c1.36-1.47,3.87-4.74,3.87-10.08,0-8.34-6.65-14.99-14.77-14.99s-14.77,6.65-14.77,14.99,6.59,14.99,14.77,14.99c2.29,0,5.23-.55,8.07-2.4l-8.77-9.05h5.23l6.38,6.54Z"/>
      <path d="M489.62,886.36c0,3.05,0,6.38,2.89,8.83,1.47,1.25,3.98,2.07,6,2.07s4.52-.82,5.99-2.07c2.89-2.45,2.89-5.78,2.89-8.83v-22.29h4.03v23.38c0,3.05-.33,5.99-2.29,8.72-2.18,3-6,4.9-10.63,4.9s-8.45-1.91-10.63-4.9c-1.96-2.73-2.29-5.67-2.29-8.72v-23.38h4.03v22.29Z"/>
      <path d="M539.06,890.17h-15.48l-4.36,10.25h-4.47l16.73-38.09,16.3,38.09h-4.47l-4.25-10.25ZM537.48,886.36l-6.1-14.55-6.21,14.55h12.32Z"/>
      <path d="M552.81,900.42v-37.88l28.34,29.7v-28.18h4.03v37.98l-28.34-29.7v28.07h-4.03Z"/>
      <path d="M614.53,890.17h-15.48l-4.36,10.25h-4.47l16.73-38.09,16.3,38.09h-4.47l-4.25-10.25ZM612.95,886.36l-6.1-14.55-6.21,14.55h12.32Z"/>
      <path d="M627.67,900.42l6.05-38.37,13.95,30.68,14.22-30.74,5.67,38.42h-4.14l-3.43-25.29-12.37,26.81-12.21-26.81-3.6,25.29h-4.14Z"/>
    </g>
    <g>
      <path d="M132.43,900.34v-39.42h15.7c3.54,0,6.26,1.01,8.16,3.02,1.9,2.01,2.85,4.77,2.85,8.27s-.95,6.26-2.85,8.27c-1.9,2.01-4.62,3.02-8.16,3.02h-10.96v16.83h-4.74ZM137.18,879.33h10.96c1.88,0,3.34-.49,4.38-1.47,1.03-.98,1.55-2.37,1.55-4.18v-2.94c0-1.81-.52-3.2-1.55-4.18-1.04-.98-2.49-1.47-4.38-1.47h-10.96v14.23Z"/>
      <path d="M176.09,901.01c-1.96,0-3.75-.36-5.37-1.07s-3-1.74-4.15-3.08c-1.15-1.34-2.04-2.94-2.68-4.8-.64-1.86-.96-3.96-.96-6.3s.32-4.39.96-6.27c.64-1.88,1.53-3.49,2.68-4.83,1.15-1.34,2.53-2.36,4.15-3.08,1.62-.72,3.41-1.07,5.37-1.07s3.74.36,5.34,1.07c1.6.72,2.98,1.74,4.15,3.08,1.17,1.34,2.07,2.95,2.71,4.83.64,1.88.96,3.97.96,6.27s-.32,4.43-.96,6.3c-.64,1.86-1.54,3.46-2.71,4.8-1.17,1.34-2.55,2.36-4.15,3.08s-3.38,1.07-5.34,1.07ZM176.09,897c2.45,0,4.44-.75,5.99-2.26,1.54-1.5,2.32-3.8,2.32-6.89v-4.18c0-3.09-.77-5.38-2.32-6.89-1.54-1.51-3.54-2.26-5.99-2.26s-4.44.75-5.99,2.26c-1.54,1.51-2.32,3.8-2.32,6.89v4.18c0,3.09.77,5.38,2.32,6.89,1.54,1.51,3.54,2.26,5.99,2.26Z"/>
      <path d="M193.37,871.19h4.4l3.11,12.59,3.11,12.76h.11l3.56-12.76,3.67-12.59h4.01l3.78,12.59,3.61,12.76h.11l2.99-12.76,3.16-12.59h4.24l-7.74,29.14h-5.59l-4.07-14.01-2.54-8.87h-.11l-2.48,8.87-4.07,14.01h-5.48l-7.79-29.14Z"/>
      <path d="M250.47,901.01c-2,0-3.79-.36-5.39-1.07s-2.97-1.74-4.12-3.08c-1.15-1.34-2.03-2.94-2.65-4.8-.62-1.86-.93-3.96-.93-6.3s.31-4.39.93-6.27c.62-1.88,1.51-3.49,2.65-4.83,1.15-1.34,2.52-2.36,4.12-3.08,1.6-.72,3.4-1.07,5.39-1.07s3.71.36,5.25,1.07c1.54.71,2.86,1.7,3.95,2.96s1.93,2.75,2.51,4.47c.58,1.73.88,3.62.88,5.68v2.14h-20.95v1.35c0,1.24.2,2.4.59,3.47s.96,2,1.69,2.8,1.64,1.41,2.71,1.86c1.07.45,2.29.68,3.64.68,1.84,0,3.45-.43,4.83-1.3,1.37-.87,2.44-2.11,3.19-3.73l3.22,2.33c-.94,2.01-2.41,3.63-4.41,4.86s-4.37,1.85-7.12,1.85ZM250.47,874.3c-1.24,0-2.37.22-3.39.65-1.02.43-1.89,1.04-2.63,1.82-.73.79-1.31,1.71-1.72,2.78-.41,1.07-.62,2.24-.62,3.51v.39h16.09v-.62c0-2.58-.71-4.65-2.12-6.2-1.41-1.55-3.29-2.33-5.62-2.33Z"/>
      <path d="M270.51,900.34v-29.14h4.52v5.37h.28c.53-1.39,1.47-2.64,2.82-3.73,1.35-1.09,3.22-1.64,5.59-1.64h1.75v4.52h-2.65c-2.45,0-4.36.46-5.73,1.38-1.38.92-2.06,2.08-2.06,3.47v19.77h-4.52Z"/>
      <path d="M301.91,901.01c-2,0-3.79-.36-5.39-1.07s-2.97-1.74-4.12-3.08c-1.15-1.34-2.03-2.94-2.65-4.8-.62-1.86-.93-3.96-.93-6.3s.31-4.39.93-6.27c.62-1.88,1.51-3.49,2.65-4.83,1.15-1.34,2.52-2.36,4.12-3.08,1.6-.72,3.4-1.07,5.39-1.07s3.71.36,5.25,1.07c1.54.71,2.86,1.7,3.95,2.96s1.93,2.75,2.51,4.47c.58,1.73.88,3.62.88,5.68v2.14h-20.95v1.35c0,1.24.2,2.4.59,3.47s.96,2,1.69,2.8,1.64,1.41,2.71,1.86c1.07.45,2.29.68,3.64.68,1.84,0,3.45-.43,4.83-1.3,1.37-.87,2.44-2.11,3.19-3.73l3.22,2.33c-.94,2.01-2.41,3.63-4.41,4.86s-4.37,1.85-7.12,1.85ZM301.91,874.3c-1.24,0-2.37.22-3.39.65-1.02.43-1.89,1.04-2.63,1.82-.73.79-1.31,1.71-1.72,2.78-.41,1.07-.62,2.24-.62,3.51v.39h16.09v-.62c0-2.58-.71-4.65-2.12-6.2-1.41-1.55-3.29-2.33-5.62-2.33Z"/>
      <path d="M340.6,895.65h-.23c-1.77,3.58-4.61,5.37-8.53,5.37-1.81,0-3.44-.36-4.91-1.07-1.47-.72-2.72-1.73-3.76-3.05-1.04-1.32-1.83-2.92-2.37-4.8-.55-1.88-.82-3.99-.82-6.33s.27-4.44.82-6.32c.55-1.88,1.34-3.48,2.37-4.8,1.03-1.32,2.29-2.33,3.76-3.05,1.47-.72,3.11-1.07,4.91-1.07,2.03,0,3.77.44,5.22,1.31,1.45.88,2.55,2.23,3.3,4.05h.23v-17.34h4.52v41.79h-4.52v-4.69ZM333.09,897c1.02,0,1.99-.13,2.91-.4.92-.26,1.72-.65,2.4-1.16.68-.51,1.21-1.14,1.61-1.87.4-.74.59-1.58.59-2.53v-10.9c0-.79-.2-1.54-.59-2.24-.4-.7-.93-1.3-1.61-1.79-.68-.49-1.48-.88-2.4-1.16-.92-.28-1.89-.43-2.91-.43-2.56,0-4.57.8-6.04,2.41-1.47,1.61-2.2,3.72-2.2,6.33v4.99c0,2.61.73,4.72,2.2,6.33s3.48,2.41,6.04,2.41Z"/>
      <path d="M368.04,858.54h4.52v17.34h.23c.75-1.83,1.85-3.18,3.3-4.05,1.45-.88,3.19-1.31,5.22-1.31,1.81,0,3.45.36,4.91,1.07,1.47.72,2.72,1.73,3.76,3.05,1.03,1.32,1.83,2.92,2.37,4.8.55,1.88.82,3.99.82,6.32s-.27,4.44-.82,6.33-1.34,3.48-2.37,4.8c-1.04,1.32-2.29,2.33-3.76,3.05-1.47.72-3.11,1.07-4.91,1.07-3.95,0-6.8-1.79-8.53-5.37h-.23v4.69h-4.52v-41.79ZM380.07,897c2.56,0,4.57-.8,6.04-2.41,1.47-1.61,2.2-3.72,2.2-6.33v-4.99c0-2.61-.73-4.72-2.2-6.33-1.47-1.61-3.48-2.41-6.04-2.41-1.02,0-1.99.14-2.91.43-.92.28-1.72.67-2.4,1.16-.68.49-1.21,1.09-1.61,1.79-.4.7-.59,1.45-.59,2.24v10.9c0,.95.2,1.79.59,2.53.4.74.93,1.36,1.61,1.87.68.51,1.48.9,2.4,1.16.92.26,1.89.4,2.91.4Z"/>
      <path d="M418.47,871.19h4.46l-13.05,35.92c-.34.87-.68,1.59-1.02,2.17-.34.58-.75,1.05-1.24,1.38-.49.34-1.1.58-1.84.73-.73.15-1.63.23-2.68.23h-2.32v-4.01h4.57l2.2-6.2-10.9-30.22h4.52l7,19.78,1.36,4.73h.28l1.58-4.73,7.06-19.78Z"/>
    </g>
  </g>
</svg>